<svg
  xmlns="http://www.w3.org/2000/svg"
  viewBox="0 0 106 109"
  fill="none"
  role="img"
>
  <title>Dopa dove</title>
  <g fill="#000">
    <path d="M2 2L60 23L78 63L26 48C20.5 46.4 16.2 42.4 13.9 37.3L2 2Z" />
    <path d="M61.5 23.7L78.3 63.2C84.7 59.8 88.4 53.6 88.8 46.2C89.2 39.7 90.8 35.4 94.5 32.8L104 32.3L96.4 28.1C93.9 22.1 88.2 20.1 83.4 22C79.1 23.8 76.1 28.1 73.3 33.1L61.5 23.7Z" />
    <path d="M28 54L78 63.3L4 101L28 54Z" />
    <path d="M4 103.7L30 91.1L27.4 107L4 103.7Z" />
  </g>
</svg>
